<svg width="18" height="18" viewBox="0 0 18 18" fill="none" xmlns="http://www.w3.org/2000/svg">
<path d="M15.2999 15.2996V7.01871L8.9999 2.04891L2.6999 7.01871V15.2996H15.2999ZM17.0999 16.1996C17.0999 16.4383 17.0051 16.6672 16.8363 16.836C16.6675 17.0048 16.4386 17.0996 16.1999 17.0996H1.7999C1.56121 17.0996 1.33229 17.0048 1.16351 16.836C0.994724 16.6672 0.899902 16.4383 0.899902 16.1996V6.58221C0.899848 6.44627 0.930592 6.31208 0.989824 6.18971C1.04906 6.06735 1.13524 5.96 1.2419 5.87571L8.4419 0.195811C8.60079 0.0702532 8.79739 0.00195312 8.9999 0.00195312C9.20242 0.00195312 9.39901 0.0702532 9.5579 0.195811L16.7579 5.87481C16.8647 5.95919 16.9509 6.06669 17.0102 6.18922C17.0694 6.31175 17.1001 6.44612 17.0999 6.58221V16.1996ZM4.4999 8.99961H6.2999C6.2999 9.7157 6.58437 10.4025 7.09071 10.9088C7.59706 11.4151 8.28382 11.6996 8.9999 11.6996C9.71599 11.6996 10.4027 11.4151 10.9091 10.9088C11.4154 10.4025 11.6999 9.7157 11.6999 8.99961H13.4999C13.4999 10.1931 13.0258 11.3377 12.1819 12.1816C11.338 13.0255 10.1934 13.4996 8.9999 13.4996C7.80643 13.4996 6.66184 13.0255 5.81792 12.1816C4.97401 11.3377 4.4999 10.1931 4.4999 8.99961Z" fill="#525866"/>
</svg>
