<svg width="110" height="36" viewBox="0 0 110 36" fill="none" xmlns="http://www.w3.org/2000/svg">
<path d="M47.8756 35.393H39.0894L44.5849 1.45532H53.3707L47.8756 35.393Z" fill="#00579F"/>
<path d="M79.7266 2.28519C77.9935 1.59851 75.2448 0.840332 71.846 0.840332C63.1693 0.840332 57.0592 5.4614 57.0218 12.0681C56.9497 16.9426 61.3964 19.6499 64.7222 21.2752C68.1214 22.936 69.277 24.02 69.277 25.5004C69.2424 27.774 66.5301 28.822 64.0005 28.822C60.4926 28.822 58.6131 28.2817 55.7567 27.0168L54.5997 26.4745L53.3702 34.0928C55.4309 35.0304 59.2276 35.8625 63.1693 35.899C72.3884 35.899 78.3904 31.3494 78.4615 24.3089C78.4966 20.4455 76.1485 17.4853 71.0864 15.0663C68.0133 13.5135 66.1314 12.4664 66.1314 10.8776C66.1674 9.43321 67.7231 7.95379 71.1921 7.95379C74.0484 7.88134 76.1471 8.56706 77.737 9.25326L78.5316 9.61364L79.7266 2.28519Z" fill="#00579F"/>
<path d="M91.4042 23.3701C92.1278 21.4204 94.912 13.8746 94.912 13.8746C94.8755 13.9471 95.6342 11.8889 96.068 10.6255L96.6821 13.5497C96.6821 13.5497 98.3459 21.6733 98.7072 23.3701C97.3341 23.3701 93.1396 23.3701 91.4042 23.3701ZM102.25 1.45532H95.4535C93.3577 1.45532 91.7655 2.06858 90.8613 4.27115L77.8104 35.3926H87.0296C87.0296 35.3926 88.5473 31.2038 88.8736 30.3017C89.885 30.3017 98.8533 30.3017 100.154 30.3017C100.407 31.4932 101.203 35.3926 101.203 35.3926H109.338L102.25 1.45532Z" fill="#00579F"/>
<path d="M31.7508 1.45532L23.1462 24.5976L22.2059 19.9041C20.6151 14.4884 15.626 8.6043 10.0583 5.67858L17.9399 35.357H27.2311L41.0415 1.45532H31.7508Z" fill="#00579F"/>
<path d="M15.1561 1.45532H1.01986L0.875244 2.14104C11.9024 4.95735 19.2054 11.7459 22.2059 19.9055L19.1329 4.3081C18.6269 2.14056 17.0722 1.52682 15.1561 1.45532Z" fill="#FAA61A"/>
</svg>
