<svg width="71" height="45" viewBox="0 0 71 45" fill="none" xmlns="http://www.w3.org/2000/svg">
<path d="M44.9624 5.25989H25.9236V39.4776H44.9624V5.25989Z" fill="#FF5F00"/>
<path d="M27.1797 22.3692C27.1767 19.0737 27.9236 15.8207 29.3639 12.8566C30.8041 9.89249 32.9 7.29496 35.4927 5.2607C32.2825 2.73758 28.4272 1.16853 24.3675 0.732875C20.3078 0.297224 16.2074 1.01254 12.535 2.79709C8.86256 4.58164 5.76631 7.36341 3.60011 10.8244C1.43391 14.2855 0.285156 18.2862 0.285156 22.3692C0.285156 26.4522 1.43391 30.4529 3.60011 33.914C5.76631 37.375 8.86256 40.1568 12.535 41.9413C16.2074 43.7259 20.3078 44.4412 24.3675 44.0055C28.4272 43.5699 32.2825 42.0008 35.4927 39.4777C32.9 37.4435 30.8042 34.8459 29.3639 31.8818C27.9237 28.9177 27.1767 25.6647 27.1797 22.3692Z" fill="#EB001B"/>
<path d="M68.6232 35.8526V35.1523H68.9058V35.0097H68.1868V35.1523H68.4694V35.8526H68.6232ZM70.0201 35.8526V35.0085H69.7997L69.5457 35.5893L69.2923 35.0085H69.0719V35.8526H69.2275V35.2158L69.4647 35.7648H69.6267L69.8644 35.2145V35.8526H70.0201Z" fill="#F79E1B"/>
<path d="M48.9403 0.608669C44.0617 0.601105 39.3233 2.24023 35.4922 5.26071C38.0827 7.29698 40.1769 9.89493 41.617 12.8586C43.057 15.8222 43.8053 19.0742 43.8053 22.3692C43.8053 25.6642 43.057 28.9162 41.617 31.8799C40.1769 34.8435 38.0827 37.4415 35.4922 39.4777C38.2194 41.6214 41.4196 43.0821 44.8259 43.7379C48.2322 44.3938 51.746 44.2257 55.0742 43.2479C58.4024 42.27 61.4487 40.5107 63.9589 38.1166C66.4691 35.7224 68.3706 32.7628 69.5048 29.4846C70.639 26.2064 70.9731 22.7045 70.4792 19.271C69.9852 15.8374 68.6776 12.5717 66.6653 9.74614C64.653 6.92056 61.9944 4.617 58.9111 3.02752C55.8278 1.43804 52.4092 0.608706 48.9403 0.608669Z" fill="#F79E1B"/>
</svg>
