<svg width="123" height="35" viewBox="0 0 123 35" fill="none" xmlns="http://www.w3.org/2000/svg">
<path d="M0.647949 0.71038H12.1029C13.1443 0.71038 16.2684 0.36326 17.6568 5.22294C18.6982 8.34702 20.0867 13.2067 22.1694 20.4962H22.8636C24.9464 12.8596 26.682 7.65278 27.3762 5.22294C28.7647 0.36326 32.2359 0.71038 33.6244 0.71038H44.3851V34.0339H33.2772V14.2481H32.583L26.682 34.0339H18.3511L12.45 14.2481H11.4087V34.0339H0.647949M48.8976 0.71038H60.0055V20.4962H61.0468L68.3364 4.18158C69.7249 1.0575 72.8489 0.71038 72.8489 0.71038H83.2625V34.0339H72.1547V14.2481H71.4604L64.1709 30.5627C62.7824 33.6868 59.3112 34.0339 59.3112 34.0339H48.8976M98.1887 23.9674V34.0339H87.7751V16.6779H121.793C120.404 20.8433 115.545 23.9674 109.991 23.9674" fill="#0F754E"/>
<path d="M122.487 14.5954C123.876 8.34721 119.71 0.710571 110.685 0.710571H87.0808C87.7751 8.00009 94.0232 14.5954 100.618 14.5954" fill="url(#paint0_linear_22_333)"/>
<defs>
<linearGradient id="paint0_linear_22_333" x1="118.322" y1="-3.80199" x2="90.552" y2="-3.80199" gradientUnits="userSpaceOnUse">
<stop stop-color="#1F5CD7"/>
<stop offset="1" stop-color="#02AEFF"/>
</linearGradient>
</defs>
</svg>
