<svg width="90" height="38" viewBox="0 0 90 38" fill="none" xmlns="http://www.w3.org/2000/svg">
<g clip-path="url(#clip0_22_268)">
<path d="M17.0089 5.66017C15.9747 6.88519 14.32 7.85141 12.6653 7.71338C12.4585 6.05701 13.2686 4.29711 14.2166 3.21012C15.2508 1.95059 17.0606 1.05339 18.5257 0.984375C18.6981 2.70976 18.0259 4.40064 17.0089 5.66017ZM18.5085 8.0412C16.1126 7.90317 14.0615 9.40425 12.9239 9.40425C11.769 9.40425 10.0281 8.11021 8.1321 8.14472C5.66727 8.17923 3.37481 9.57679 2.11654 11.8025C-0.468941 16.254 1.44432 22.845 3.94362 26.4683C5.16741 28.2627 6.63252 30.2297 8.56301 30.1606C10.3901 30.0916 11.114 28.9701 13.3203 28.9701C15.5438 28.9701 16.1816 30.1606 18.1121 30.1261C20.1115 30.0916 21.3698 28.3317 22.5936 26.5373C23.9897 24.5014 24.5585 22.5172 24.593 22.4137C24.5585 22.3791 20.732 20.9126 20.6975 16.4956C20.6631 12.8033 23.7139 11.0434 23.8518 10.9398C22.1282 8.38628 19.4393 8.11021 18.5085 8.0412ZM32.3495 3.03758V29.9363H36.5207V20.74H42.2949C47.5693 20.74 51.2752 17.1167 51.2752 11.8716C51.2752 6.62638 47.6383 3.03758 42.4328 3.03758H32.3495ZM36.5207 6.55737H41.3297C44.9494 6.55737 47.0178 8.4898 47.0178 11.8888C47.0178 15.2878 44.9494 17.2375 41.3125 17.2375H36.5207V6.55737ZM58.8937 30.1434C61.5137 30.1434 63.944 28.8148 65.0472 26.7099H65.1334V29.9363H68.9944V16.5473C68.9944 12.6652 65.8918 10.1634 61.1173 10.1634C56.6875 10.1634 53.4125 12.6997 53.2919 16.185H57.0494C57.3597 14.5286 58.8937 13.4417 60.9966 13.4417C63.5476 13.4417 64.9782 14.6322 64.9782 16.8234V18.3072L59.7728 18.6178C54.9293 18.9111 52.3094 20.8953 52.3094 24.3461C52.3094 27.8314 55.0155 30.1434 58.8937 30.1434ZM60.0141 26.9514C57.7906 26.9514 56.3772 25.8817 56.3772 24.2426C56.3772 22.5517 57.7389 21.5682 60.3416 21.4129L64.9782 21.1196V22.638C64.9782 25.157 62.8409 26.9514 60.0141 26.9514ZM74.1481 37.252C78.2159 37.252 80.1292 35.6991 81.8011 30.9888L89.1266 10.4222H84.8865L79.974 26.313H79.8879L74.9754 10.4222H70.6146L77.6816 30.0053L77.3024 31.1959C76.6646 33.2146 75.6304 33.991 73.7861 33.991C73.4586 33.991 72.8209 33.9565 72.5623 33.922V37.1484C72.8036 37.2175 73.8378 37.252 74.1481 37.252Z" fill="black"/>
</g>
<defs>
<clipPath id="clip0_22_268">
<rect width="88.2511" height="36.2676" fill="white" transform="translate(0.875244 0.984375)"/>
</clipPath>
</defs>
</svg>
