<svg width="138" height="43" viewBox="0 0 138 43" fill="none" xmlns="http://www.w3.org/2000/svg">
<path fill-rule="evenodd" clip-rule="evenodd" d="M64.5581 17.863C65.8921 17.863 67.1179 17.9709 68.0552 18.3317C70.0382 19.0898 71.3 20.7854 71.3 23.2384C71.3 25.6563 69.9662 27.4963 67.9832 28.2537C67.0456 28.6145 65.7841 28.7589 64.0894 28.7589H51.9033V11.5851H69.8939V15.5536H57.1309V17.863H64.5581ZM64.2695 24.4295C64.7743 24.4295 65.171 24.3931 65.4594 24.2852C66.0724 24.0687 66.3246 23.5271 66.3246 23.0219C66.3246 22.8314 66.2938 22.6556 66.232 22.4995C66.195 22.4064 66.147 22.32 66.0879 22.2411C65.9844 22.1035 65.8469 21.9894 65.6758 21.9037C65.6234 21.8778 65.5687 21.8543 65.5118 21.834C65.4204 21.8013 65.3232 21.776 65.2203 21.7556C64.9452 21.7014 64.6284 21.6872 64.2695 21.6872H57.1309V24.4295H64.2695ZM78.3147 11.5851H85.9578L92.9884 28.7589H87.1116L86.102 26.2694H78.1705L77.1971 28.7589H71.2843L78.3147 11.5851ZM81.9561 15.5536L79.4682 22.481H84.8404L82.3526 15.5536H81.9561ZM99.7173 22.3731V28.7589H94.4898V11.5851H99.7173V17.863H108.118V11.5851H113.346V28.7589H108.118V22.3731H99.7173ZM121.62 28.7589V22.2645H123.062L129.3 28.7589H136.258L127.569 19.8115L135.933 11.5851H129.372L123.062 18.0437H121.62V11.5851H116.392V28.7589H121.62Z" fill="#333333"/>
<path d="M0.419678 0.544189H42.0967V21.5202C42.0967 26.8975 39.2302 31.8665 34.577 34.5554L21.2582 42.2519L7.93944 34.5554C3.28615 31.8665 0.419678 26.8975 0.419678 21.5202V0.544189Z" fill="#FFDD2D"/>
<path fill-rule="evenodd" clip-rule="evenodd" d="M11.8579 11.5851V18.1091C12.7494 17.1016 14.3702 16.4198 16.2235 16.4198H18.2374V24.0039C18.2374 26.0216 17.6896 27.7876 16.8768 28.7591H25.637C24.8259 27.7867 24.2793 26.0228 24.2793 24.0077V16.4198H26.2933C28.1466 16.4198 29.7674 17.1016 30.6589 18.1091V11.5851H11.8579Z" fill="#333333"/>
</svg>
