<svg width="79" height="38" viewBox="0 0 79 38" fill="none" xmlns="http://www.w3.org/2000/svg">
<g clip-path="url(#clip0_22_276)">
<path d="M37.4446 19.445V28.4452H34.5432V6.18652H42.0869C43.9244 6.18652 45.6653 6.86396 47.0193 8.12206C48.3733 9.28339 49.0502 11.0254 49.0502 12.8641C49.0502 14.7029 48.3733 16.3481 47.0193 17.6062C45.6653 18.8643 44.0211 19.5418 42.0869 19.5418L37.4446 19.445ZM37.4446 8.89628V16.6384H42.2803C43.3441 16.6384 44.408 16.2513 45.085 15.4771C46.6324 14.0255 46.6324 11.606 45.1817 10.1544L45.085 10.0576C44.3113 9.28339 43.3441 8.7995 42.2803 8.89628H37.4446Z" fill="#5F6368"/>
<path d="M55.7235 12.7673C57.8512 12.7673 59.4954 13.348 60.7526 14.5093C62.0099 15.6706 62.5902 17.2191 62.5902 19.1546V28.4452H59.8822V26.3161H59.7855C58.6249 28.0581 56.9808 28.9291 55.0465 28.9291C53.4024 28.9291 51.9517 28.4452 50.7911 27.4774C49.7273 26.5097 49.0503 25.1548 49.0503 23.7031C49.0503 22.1547 49.6306 20.8966 50.7911 19.9288C51.9517 18.9611 53.5958 18.574 55.5301 18.574C57.2709 18.574 58.6249 18.8643 59.6888 19.5417V18.8643C59.6888 17.8965 59.3019 16.9287 58.5282 16.3481C57.7545 15.6706 56.7874 15.2835 55.7235 15.2835C54.0794 15.2835 52.8221 15.961 51.9517 17.3159L49.4371 15.7674C50.9846 13.7351 53.0156 12.7673 55.7235 12.7673ZM52.0484 23.7999C52.0484 24.5741 52.4353 25.2516 53.0156 25.6387C53.6925 26.1226 54.4663 26.4129 55.24 26.4129C56.4005 26.4129 57.5611 25.929 58.4315 25.058C59.3986 24.187 59.8822 23.1225 59.8822 21.9612C59.0118 21.2837 57.7545 20.8966 56.1104 20.8966C54.9498 20.8966 53.9827 21.1869 53.209 21.7676C52.4353 22.2515 52.0484 22.9289 52.0484 23.7999Z" fill="#5F6368"/>
<path d="M78.2578 13.2512L68.6831 35.2196H65.7817L69.3601 27.5742L63.0737 13.348H66.1686L70.7141 24.2838H70.8108L75.2596 13.348H78.2578V13.2512Z" fill="#5F6368"/>
<path d="M25.9357 17.5095C25.9357 16.6385 25.839 15.7675 25.7423 14.8965H13.6531V19.8321H20.5197C20.2296 21.3805 19.3592 22.8322 18.0052 23.7032V26.8968H22.1639C24.5817 24.671 25.9357 21.3805 25.9357 17.5095Z" fill="#4285F4"/>
<path d="M13.6532 29.9936C17.1349 29.9936 20.0363 28.8322 22.164 26.8967L18.0053 23.7031C16.8447 24.4773 15.394 24.9612 13.6532 24.9612C10.3649 24.9612 7.4635 22.7353 6.49636 19.6384H2.24097V22.9288C4.46538 27.2838 8.81749 29.9936 13.6532 29.9936Z" fill="#34A853"/>
<path d="M6.49636 19.6385C5.91608 18.0901 5.91608 16.3481 6.49636 14.7029V11.4125H2.24096C0.403403 14.9932 0.403403 19.2514 2.24096 22.9289L6.49636 19.6385Z" fill="#FBBC04"/>
<path d="M13.6531 9.47694C15.4907 9.47694 17.2315 10.1544 18.5855 11.4125L22.2606 7.73496C19.9395 5.60586 16.8447 4.34776 13.7498 4.44454C8.91417 4.44454 4.46534 7.15429 2.33765 11.5093L6.59304 14.7997C7.46347 11.7028 10.3649 9.47694 13.6531 9.47694Z" fill="#EA4335"/>
</g>
<defs>
<clipPath id="clip0_22_276">
<rect width="77.3708" height="36.872" fill="white" transform="translate(0.886963 0.379883)"/>
</clipPath>
</defs>
</svg>
